<?xml version="1.0" encoding="UTF-8"?>
<svg width="112px" height="123px" viewBox="0 0 112 123" version="1.1" xmlns="http://www.w3.org/2000/svg" xmlns:xlink="http://www.w3.org/1999/xlink">
    <!-- Generator: Sketch 48.2 (47327) - http://www.bohemiancoding.com/sketch -->
    <title>Group 2 Copy 7</title>
    <desc>Created with Sketch.</desc>
    <defs>
        <filter x="-42.4%" y="-210.0%" width="184.8%" height="519.9%" filterUnits="objectBoundingBox" id="filter-1">
            <feGaussianBlur stdDeviation="4" in="SourceGraphic"></feGaussianBlur>
        </filter>
    </defs>
    <g id="Logz.io-/-Open-source" stroke="none" stroke-width="1" fill="none" fill-rule="evenodd" opacity="0.900000036">
        <g id="Group-2-Copy-7" transform="translate(-6.000000, -3.000000)">
            <g id="Group-11" transform="translate(64.851772, 67.579521) rotate(-6.000000) translate(-64.851772, -67.579521) translate(6.351772, 6.579521)" fill="#3B5EE9">
                <g id="Group-8" transform="translate(0.000000, 0.000000)">
                    <path d="M111.33972,6.09385099 L61.2457455,51.1986685 C58.7779746,53.4206594 58.5787306,57.2224625 60.8007215,59.6902334 C63.0227124,62.1580043 66.8245155,62.3572484 69.2922864,60.1352575 L116.22018,17.8811924 C116.264912,19.8345482 115.985222,21.8143436 115.358396,23.7413167 L85.6496214,115.071347 C84.056018,119.970365 78.7927078,122.649934 73.8936891,121.05633 C72.7558521,120.686203 71.6998507,120.100621 70.7832609,119.33151 L69.4157205,118.184008 C63.8732637,113.533334 61.8134776,105.922987 64.2537008,99.1117531 C66.6939239,92.3005197 64.6341378,84.6901719 59.0916811,80.0394985 L44.613217,67.8906246 C39.0707602,63.2399512 31.2183526,62.5329809 24.9343374,66.1188898 C18.6503222,69.7047988 10.7979146,68.9978285 5.25545784,64.3471551 L3.88791738,63.1996524 C-0.0585095791,59.888207 -0.573263834,54.0045389 2.73818157,50.058112 C3.50729173,49.1415222 4.4455647,48.3814633 5.50184345,47.8193757 L90.2854903,2.7026506 C96.6382359,-0.677896088 104.40727,0.137345853 109.919888,4.762982 C110.421215,5.18364486 110.894747,5.62815786 111.33972,6.09385099 Z" id="Combined-Shape"></path>
                </g>
            </g>
            <rect id="Rectangle-Copy" fill="#000000" filter="url(#filter-1)" transform="translate(74.070347, 95.579133) rotate(-45.000000) translate(-74.070347, -95.579133) " x="59.9118788" y="92.7215678" width="28.316937" height="5.71513004" rx="2.85756502"></rect>
            <rect id="Rectangle-Copy" fill="#50E3C2" transform="translate(74.070347, 95.579133) rotate(-45.000000) translate(-74.070347, -95.579133) " x="44.2791137" y="89.5664495" width="59.5824673" height="12.0253666" rx="6.01268331"></rect>
            <rect id="Rectangle-Copy-3" fill="#50E3C2" transform="translate(41.208643, 92.047591) rotate(-45.000000) translate(-41.208643, -92.047591) " x="27.472861" y="86.0349075" width="27.4715646" height="12.0253666" rx="6.01268331"></rect>
        </g>
    </g>
</svg>