<?xml version="1.0" encoding="UTF-8"?>
<svg width="294px" height="90px" viewBox="0 0 294 90" version="1.1" xmlns="http://www.w3.org/2000/svg" xmlns:xlink="http://www.w3.org/1999/xlink">
    <!-- Generator: Sketch 48.2 (47327) - http://www.bohemiancoding.com/sketch -->
    <title>Group</title>
    <desc>Created with Sketch.</desc>
    <defs>
        <filter x="-166.7%" y="-750.0%" width="433.3%" height="1600.0%" filterUnits="objectBoundingBox" id="filter-1">
            <feGaussianBlur stdDeviation="10" in="SourceGraphic"></feGaussianBlur>
        </filter>
    </defs>
    <g id="Logz.io-/-Open-source" stroke="none" stroke-width="1" fill="none" fill-rule="evenodd">
        <g id="Group" transform="translate(-4.000000, -1.000000)">
            <path d="M93.86,63.68 C93.86,63.5733328 93.9133328,63.3066688 94.02,62.88 L109.46,12.56 C109.780002,11.4399944 110.56666,10.5733364 111.82,9.96 C113.07334,9.3466636 114.499992,9.04 116.1,9.04 C117.700008,9.04 119.139994,9.3466636 120.42,9.96 C121.700006,10.5733364 122.499998,11.4399944 122.82,12.56 L138.26,62.88 C138.366667,63.3066688 138.42,63.5733328 138.42,63.68 C138.42,64.8533392 137.700007,65.8666624 136.26,66.72 C134.819993,67.5733376 133.353341,68 131.86,68 C129.886657,68 128.713335,67.3066736 128.34,65.92 L125.3,55.28 L106.98,55.28 L103.94,65.92 C103.566665,67.3066736 102.393343,68 100.42,68 C98.8733256,68 97.3933404,67.5866708 95.98,66.76 C94.5666596,65.9333292 93.86,64.9066728 93.86,63.68 Z M109.14,47.12 L123.06,47.12 L116.1,22.56 L109.14,47.12 Z M143.22,82.4 L143.22,33.2 C143.22,32.2399952 143.686662,31.4666696 144.62,30.88 C145.553338,30.2933304 146.713326,30 148.1,30 C149.486674,30 150.633329,30.2933304 151.54,30.88 C152.446671,31.4666696 152.9,32.2399952 152.9,33.2 L152.9,35.6 C153.913338,33.8933248 155.366657,32.4533392 157.26,31.28 C159.153343,30.1066608 161.299988,29.52 163.7,29.52 C167.70002,29.52 171.086653,31.1066508 173.86,34.28 C176.633347,37.4533492 178.02,41.2799776 178.02,45.76 L178.02,52.32 C178.02,56.6400216 176.606681,60.4533168 173.78,63.76 C170.953319,67.0666832 167.700018,68.72 164.02,68.72 C161.726655,68.72 159.606676,68.0933396 157.66,66.84 C155.713324,65.5866604 154.340004,64.1066752 153.54,62.4 L153.54,82.4 C153.54,83.2533376 153.020005,84.01333 151.98,84.68 C150.939995,85.34667 149.700007,85.68 148.26,85.68 C146.819993,85.68 145.620005,85.34667 144.66,84.68 C143.699995,84.01333 143.22,83.2533376 143.22,82.4 Z M153.54,53.76 C153.54,54.826672 154.259993,56.0799928 155.7,57.52 C157.140007,58.9600072 158.766658,59.68 160.58,59.68 C162.446676,59.68 164.099993,58.9200076 165.54,57.4 C166.980007,55.8799924 167.7,54.186676 167.7,52.32 L167.7,45.76 C167.7,43.893324 166.980007,42.226674 165.54,40.76 C164.099993,39.293326 162.393343,38.56 160.42,38.56 C158.606658,38.56 157.006674,39.22666 155.62,40.56 C154.233326,41.89334 153.54,43.626656 153.54,45.76 L153.54,53.76 Z M183.22,52.32 L183.22,45.76 C183.22,41.3866448 184.92665,37.5866828 188.34,34.36 C191.75335,31.1333172 195.83331,29.52 200.58,29.52 C205.220023,29.52 209.273316,31.119984 212.74,34.32 C216.206684,37.520016 217.94,41.3333112 217.94,45.76 L217.94,52.32 C217.94,56.6400216 216.206684,60.4533168 212.74,63.76 C209.273316,67.0666832 205.220023,68.72 200.58,68.72 C195.939977,68.72 191.886684,67.0666832 188.42,63.76 C184.953316,60.4533168 183.22,56.6400216 183.22,52.32 Z M193.54,52.32 C193.54,54.2400096 194.233326,55.9466592 195.62,57.44 C197.006674,58.9333408 198.65999,59.68 200.58,59.68 C202.446676,59.68 204.08666,58.9333408 205.5,57.44 C206.91334,55.9466592 207.62,54.2400096 207.62,52.32 L207.62,45.76 C207.62,43.9466576 206.91334,42.2933408 205.5,40.8 C204.08666,39.3066592 202.446676,38.56 200.58,38.56 C198.65999,38.56 197.006674,39.293326 195.62,40.76 C194.233326,42.226674 193.54,43.893324 193.54,45.76 L193.54,52.32 Z M225.22,64.72 L225.22,11.04 C225.22,10.0799952 225.686662,9.3066696 226.62,8.72 C227.553338,8.1333304 228.793326,7.84 230.34,7.84 C231.780007,7.84 233.006662,8.1333304 234.02,8.72 C235.033338,9.3066696 235.54,10.0799952 235.54,11.04 L235.54,64.72 C235.54,65.520004 235.020005,66.2666632 233.98,66.96 C232.939995,67.6533368 231.726674,68 230.34,68 C228.899993,68 227.686672,67.66667 226.7,67 C225.713328,66.33333 225.22,65.5733376 225.22,64.72 Z M244.98,64.72 L244.98,11.04 C244.98,10.0799952 245.446662,9.3066696 246.38,8.72 C247.313338,8.1333304 248.553326,7.84 250.1,7.84 C251.540007,7.84 252.766662,8.1333304 253.78,8.72 C254.793338,9.3066696 255.3,10.0799952 255.3,11.04 L255.3,64.72 C255.3,65.520004 254.780005,66.2666632 253.74,66.96 C252.699995,67.6533368 251.486674,68 250.1,68 C248.659993,68 247.446672,67.66667 246.46,67 C245.473328,66.33333 244.98,65.5733376 244.98,64.72 Z M262.58,52.32 L262.58,45.76 C262.58,41.3866448 264.28665,37.5866828 267.7,34.36 C271.11335,31.1333172 275.19331,29.52 279.94,29.52 C284.580023,29.52 288.633316,31.119984 292.1,34.32 C295.566684,37.520016 297.3,41.3333112 297.3,45.76 L297.3,52.32 C297.3,56.6400216 295.566684,60.4533168 292.1,63.76 C288.633316,67.0666832 284.580023,68.72 279.94,68.72 C275.299977,68.72 271.246684,67.0666832 267.78,63.76 C264.313316,60.4533168 262.58,56.6400216 262.58,52.32 Z M272.9,52.32 C272.9,54.2400096 273.593326,55.9466592 274.98,57.44 C276.366674,58.9333408 278.01999,59.68 279.94,59.68 C281.806676,59.68 283.44666,58.9333408 284.86,57.44 C286.27334,55.9466592 286.98,54.2400096 286.98,52.32 L286.98,45.76 C286.98,43.9466576 286.27334,42.2933408 284.86,40.8 C283.44666,39.3066592 281.806676,38.56 279.94,38.56 C278.01999,38.56 276.366674,39.293326 274.98,40.76 C273.593326,42.226674 272.9,43.893324 272.9,45.76 L272.9,52.32 Z" id="Apollo-Copy" fill="#434343"></path>
            <g id="Group-2-Copy">
                <g id="Group-11" transform="translate(42.555003, 44.049525) rotate(-6.000000) translate(-42.555003, -44.049525) translate(4.055003, 4.049525)" fill="#3B5EE9">
                    <g id="Group-8" transform="translate(0.000000, 0.000000)">
                        <path d="M73.4922658,3.61308019 L40.6596568,33.1756941 C39.0370022,34.6367389 38.9059915,37.1365713 40.3670363,38.759226 C41.8280812,40.3818806 44.3279135,40.5128913 45.9505682,39.0518465 L76.7142584,11.3520954 C76.7417798,12.628424 76.5567121,13.9217947 76.1441897,15.180105 L56.4594617,75.2241028 C55.4085807,78.4295877 51.9581145,80.1762392 48.7526296,79.1253582 C48.0126253,78.8827563 47.3258408,78.5008805 46.7292785,78.0003053 L45.8714001,77.2804599 C42.2314208,74.2261546 40.8836778,69.2252273 42.495928,64.7554533 C44.1081782,60.2856794 42.7604351,55.2847521 39.1204559,52.2304468 L29.7341482,44.3543995 C26.0941689,41.3000942 20.9351838,40.8412283 16.8132801,43.205153 C12.6913764,45.5690776 7.53239122,45.1102117 3.89241194,42.0559064 L3.03453354,41.3360609 C0.450398238,39.167714 0.113335205,35.3150659 2.28168218,32.7309306 C2.78225736,32.1343683 3.39229606,31.6390351 4.07893069,31.2716186 L59.7925082,1.45941502 C63.9351412,-0.757298094 69.0096814,-0.230708028 72.608886,2.78938323 C72.9199134,3.05036615 73.2145161,3.32543242 73.4922658,3.61308019 Z" id="Combined-Shape"></path>
                    </g>
                </g>
                <rect id="Rectangle-Copy" fill="#000000" filter="url(#filter-1)" transform="translate(49.000000, 63.000000) rotate(-45.000000) translate(-49.000000, -63.000000) " x="40" y="61" width="18" height="4" rx="2"></rect>
                <rect id="Rectangle-Copy" fill="#50E3C2" transform="translate(48.000000, 62.000000) rotate(-45.000000) translate(-48.000000, -62.000000) " x="29" y="58" width="38" height="8" rx="4"></rect>
                <rect id="Rectangle-Copy-3" fill="#50E3C2" transform="translate(27.000000, 59.000000) rotate(-45.000000) translate(-27.000000, -59.000000) " x="18" y="55" width="18" height="8" rx="4"></rect>
            </g>
        </g>
    </g>
</svg>